<svg width="300" height="100" xmlns="http://www.w3.org/2000/svg">
 <!-- Created with Method Draw - http://github.com/duopixel/Method-Draw/ -->

 <g>
  <title>background</title>
  <rect fill="#fff" id="canvas_background" height="102" width="302" y="-1" x="-1"/>
  <g display="none" id="canvasGrid">
   <rect fill="url(#gridpattern)" stroke-width="0" y="0" x="0" height="100%" width="100%" id="svg_3"/>
  </g>
 </g>
 <g>
  <title>Layer 1</title>
  <rect stroke="#000" id="svg_10" height="103.000001" width="210.000007" y="0.5" x="168.499993" stroke-opacity="null" stroke-width="0" fill="#007fff"/>
  <text xml:space="preserve" text-anchor="start" font-family="'Trebuchet MS', Gadget, sans-serif" font-size="120" id="svg_11" y="96.5" x="178.5" stroke-opacity="null" stroke-width="0" stroke="#000" fill="#ffffff">RI</text>
  <text xml:space="preserve" text-anchor="start" font-family="'Trebuchet MS', Gadget, sans-serif" font-size="120" id="svg_12" y="95.5" x="12.5" stroke-opacity="null" stroke-width="0" stroke="#000" fill="#007fff">AU</text>
  <path stroke="#000" id="svg_13" d="m177.248388,46.370857c-1.444151,-1.02074 -3.454657,-0.693202 -4.489891,0.733371l-8.119357,11.192855c-0.73909,1.017998 -0.502024,2.436228 0.530416,3.166113c1.032436,0.728523 2.467453,0.494438 3.206543,-0.524902l5.732906,-7.902118l-0.747322,-0.529074l-5.732032,7.902797l0,0c-0.443977,0.610105 -1.305444,0.751365 -1.923197,0.315111c-0.618607,-0.436982 -0.760292,-1.288044 -0.317194,-1.899539l0,0l8.118306,-11.192175l0.001046,-0.00071l-0.001747,-0.000679c0.738216,-1.015895 2.177787,-1.250649 3.207415,-0.522837c1.029632,0.728501 1.267764,2.150221 0.530592,3.166792l0,-0.000676l-8.89912,12.267617l0.000873,0.001393c-1.033296,1.423787 -3.048376,1.752722 -4.490764,0.733369c-1.442374,-1.02145 -1.774309,-3.008928 -0.741885,-4.43411l6.467435,-8.915225l-0.747495,-0.528361l-6.467245,8.915226c-1.330352,1.833758 -0.902859,4.38421 0.955107,5.697197c1.857956,1.314373 4.441137,0.891951 5.771489,-0.941097l8.898917,-12.268336c1.03245,-1.425858 0.701392,-3.409876 -0.743793,-4.432003l0,0.000001z" stroke-opacity="null" stroke-width="0" fill="#ffffff"/>
  <path stroke="#000" id="svg_14" d="m177.24839,40.37086c-1.44415,-1.02074 -3.45466,-0.6932 -4.48989,0.73337l-8.11936,11.19285c-0.73909,1.018 -0.50202,2.43623 0.53042,3.16612c1.03243,0.72852 2.46745,0.49443 3.20654,-0.52491l5.7329,-7.90211l-0.74732,-0.52908l-5.73203,7.9028l0,0c-0.44398,0.6101 -1.30544,0.75136 -1.9232,0.31511c-0.6186,-0.43698 -0.76029,-1.28804 -0.31719,-1.89954l0,0l8.1183,-11.19217l0.00105,-0.00071l-0.00175,-0.00068c0.73822,-1.0159 2.17779,-1.25065 3.20742,-0.52284c1.02963,0.7285 1.26776,2.15022 0.53059,3.16679l0,-0.00067l-8.89912,12.26761l0.00087,0.0014c-1.03329,1.42378 -3.04837,1.75272 -4.49076,0.73337c-1.44237,-1.02145 -1.77431,-3.00893 -0.74189,-4.43411l6.46744,-8.91523l-0.7475,-0.52836l-6.46724,8.91523c-1.33035,1.83375 -0.90286,4.38421 0.95511,5.69719c1.85795,1.31438 4.44113,0.89195 5.77148,-0.94109l8.89892,-12.26834c1.03245,-1.42586 0.70139,-3.40988 -0.74379,-4.432l0,0z" stroke-opacity="null" stroke-width="0" fill="#005fbf"/>
 </g>
</svg>