<?xml version="1.0" standalone="no"?>
<!DOCTYPE svg PUBLIC "-//W3C//DTD SVG 20010904//EN"
 "http://www.w3.org/TR/2001/REC-SVG-20010904/DTD/svg10.dtd">
<svg version="1.0" xmlns="http://www.w3.org/2000/svg"
 width="2400.000000pt" height="2400.000000pt" viewBox="0 0 2400.000000 2400.000000"
 preserveAspectRatio="xMidYMid meet">
<metadata>
Created by potrace 1.11, written by Peter Selinger 2001-2013
</metadata>
<g transform="translate(0.000000,2400.000000) scale(0.100000,-0.100000)"
fill="#000000" stroke="none">
<path d="M13537 15962 l-58 -3 2 -37 c2 -21 0 -43 -4 -49 -4 -7 -3 -15 3 -18
7 -4 8 -11 2 -18 -5 -7 -6 -21 -2 -32 4 -11 4 -30 -1 -42 -5 -15 -5 -23 2 -23
6 0 6 -6 0 -18 -5 -10 -6 -24 -1 -31 4 -8 5 -25 1 -40 -7 -28 -6 -90 3 -98 2
-3 1 -16 -4 -29 -6 -16 -6 -24 1 -24 6 0 7 -6 1 -16 -5 -9 -6 -34 -2 -55 4
-21 4 -39 -1 -39 -5 0 -6 -7 -3 -15 5 -11 -2 -15 -27 -16 -19 -1 -38 0 -44 1
-5 1 -21 2 -35 1 -82 -4 -508 -3 -516 1 -5 3 -18 2 -29 -2 -19 -7 -21 -16 -20
-130 0 -67 -3 -124 -7 -126 -5 -3 -5 -11 -1 -17 12 -19 10 -297 -2 -297 -7 0
-7 -3 0 -8 7 -4 11 -65 11 -157 0 -92 -4 -153 -11 -157 -6 -5 -6 -8 0 -8 6 0
10 -58 10 -155 0 -97 -4 -155 -10 -155 -6 0 -6 -3 0 -8 7 -4 11 -65 11 -157 0
-92 -4 -153 -11 -157 -6 -5 -6 -8 0 -8 6 0 10 -58 10 -155 0 -97 -4 -155 -10
-155 -6 0 -6 -3 0 -8 7 -4 11 -65 11 -157 0 -92 -4 -153 -11 -157 -6 -5 -6 -8
0 -8 6 0 10 -58 10 -155 0 -97 -4 -155 -10 -155 -6 0 -6 -3 0 -8 7 -4 11 -65
11 -157 0 -92 -4 -153 -11 -157 -6 -5 -6 -8 0 -8 6 0 10 -58 10 -155 0 -97 -4
-155 -10 -155 -6 0 -6 -3 0 -8 7 -4 11 -65 11 -157 0 -92 -4 -153 -11 -157 -6
-5 -6 -8 0 -8 6 0 10 -58 10 -155 0 -97 -4 -155 -10 -155 -6 0 -6 -3 0 -8 7
-4 11 -65 11 -157 0 -92 -4 -153 -11 -157 -6 -5 -6 -8 0 -8 12 0 13 -199 1
-218 -4 -7 -4 -12 1 -12 9 0 10 -77 0 -86 -3 -4 -2 -14 3 -24 5 -10 7 -20 4
-23 -3 -3 -7 -41 -9 -84 -5 -101 -14 -220 -21 -258 -3 -16 -7 -50 -9 -75 -2
-25 -7 -58 -10 -75 -3 -16 -8 -46 -11 -65 -11 -65 -22 -117 -28 -138 -3 -9 -8
-30 -11 -47 -6 -30 -8 -38 -17 -65 -61 -191 -85 -254 -120 -327 -72 -151 -174
-295 -272 -383 -22 -19 -48 -43 -58 -52 -9 -10 -46 -36 -80 -59 -35 -23 -75
-50 -90 -60 -15 -11 -33 -19 -41 -19 -7 0 -19 -6 -26 -12 -6 -7 -15 -13 -19
-14 -4 0 -25 -8 -47 -18 -115 -51 -334 -115 -383 -111 -12 1 -22 -1 -22 -5 0
-4 -15 -7 -32 -8 -18 -1 -44 -4 -58 -7 -94 -20 -477 -26 -625 -11 -44 5 -96
10 -115 11 -19 2 -35 4 -35 5 0 1 -13 3 -30 5 -62 7 -243 55 -335 88 -103 37
-202 88 -289 146 -30 20 -61 41 -70 46 -20 13 -169 161 -201 200 -50 61 -134
200 -160 265 -8 19 -16 37 -19 40 -11 10 -87 233 -107 313 -2 9 -6 27 -10 40
-3 12 -7 33 -10 47 -3 14 -7 33 -10 43 -6 18 -12 56 -19 112 -2 17 -4 30 -5
30 -3 0 -10 42 -14 90 -3 28 -7 66 -10 85 -6 40 -16 167 -22 255 -2 33 -4
1066 -5 2296 l-1 2236 -165 -1 c-91 -1 -167 2 -170 7 -2 4 -9 4 -15 1 -15 -10
-119 -10 -125 -1 -2 4 -9 4 -15 0 -7 -3 -112 -6 -235 -6 -154 0 -223 -3 -224
-11 -4 -44 -3 -4556 1 -4556 3 0 5 -28 6 -63 2 -94 18 -293 30 -357 6 -37 14
-91 18 -125 3 -25 22 -122 30 -150 1 -5 9 -37 16 -70 17 -74 17 -74 19 -77 2
-2 4 -13 6 -24 25 -128 218 -594 247 -594 4 0 8 -9 8 -20 0 -10 8 -24 18 -29
9 -6 13 -11 9 -11 -10 0 89 -144 156 -225 50 -61 156 -175 162 -175 2 0 21
-18 43 -39 47 -47 225 -180 290 -218 26 -15 49 -30 52 -33 14 -15 238 -119
345 -160 11 -4 31 -12 45 -18 21 -9 119 -40 155 -48 6 -1 55 -14 110 -28 55
-15 111 -28 125 -31 14 -3 34 -7 45 -9 11 -2 45 -7 75 -11 30 -4 64 -9 75 -11
11 -3 43 -7 70 -10 28 -3 66 -7 85 -10 130 -17 560 -24 725 -11 191 14 231 18
255 23 14 3 32 6 40 6 8 0 38 5 65 10 28 5 66 11 85 14 19 3 44 8 55 11 11 4
29 8 40 9 11 0 40 7 65 14 25 7 53 14 62 16 44 10 55 13 81 23 15 6 27 8 27 5
0 -4 7 -1 15 6 8 7 15 10 15 6 0 -4 13 0 30 9 16 8 33 16 37 16 51 8 331 132
345 153 4 6 8 7 8 3 0 -5 13 1 29 12 16 12 31 21 34 21 7 0 158 100 173 114 7
6 25 20 40 31 94 66 277 253 370 376 73 97 164 243 205 330 13 27 27 49 31 49
8 0 12 -25 8 -45 -1 -5 -1 -17 -1 -25 1 -32 2 -52 0 -116 -1 -36 1 -68 4 -71
3 -3 2 -16 -3 -29 -6 -16 -6 -24 1 -24 6 0 6 -6 0 -18 -5 -10 -6 -24 -1 -31 4
-8 5 -25 1 -40 -7 -28 -6 -90 3 -98 2 -3 1 -16 -4 -29 -6 -16 -6 -24 1 -24 6
0 7 -6 1 -16 -5 -9 -6 -34 -2 -55 4 -21 4 -39 0 -39 -7 0 -4 -70 4 -77 3 -3 1
-16 -4 -29 -6 -16 -6 -24 1 -24 6 0 6 -6 0 -18 -5 -10 -6 -24 -1 -31 4 -8 5
-25 1 -40 -7 -28 -6 -90 3 -98 2 -3 1 -16 -4 -29 -6 -16 -6 -24 1 -24 6 0 7
-6 1 -16 -5 -9 -6 -34 -2 -55 4 -21 4 -39 0 -39 -7 0 -4 -70 4 -77 3 -3 1 -16
-4 -29 -6 -16 -6 -24 1 -24 6 0 6 -6 0 -18 -5 -10 -6 -24 -1 -31 4 -8 5 -25 1
-40 -3 -14 -5 -39 -4 -56 2 -16 3 -40 4 -52 l2 -23 5258 0 5259 0 0 3983 0
3982 -97 -3 c-54 -2 -102 -3 -108 -3 -5 -1 -28 0 -50 0 -22 0 -53 0 -70 0 -16
0 -82 0 -145 0 -63 0 -124 0 -135 0 -30 0 -198 0 -215 0 -60 0 -477 -1 -485
-1 -9 1 -223 1 -255 1 -88 -1 -242 0 -270 2 -19 0 -42 1 -50 1 -8 -1 -112 -1
-230 -1 -118 1 -221 1 -227 0 -7 -1 -19 -1 -25 -2 -26 -1 -314 0 -333 1 -11 1
-24 1 -30 2 -11 0 -480 -1 -642 -2 -57 -1 -109 -1 -115 -1 -110 0 -241 0 -268
2 -19 0 -42 1 -50 1 -8 -1 -112 -1 -230 -1 -118 1 -221 1 -227 0 -7 -1 -19 -1
-25 -2 -26 -1 -314 0 -333 1 -11 1 -24 1 -30 2 -11 0 -480 -1 -642 -2 -57 -1
-109 -1 -115 -1 -110 0 -241 0 -268 2 -19 0 -42 1 -50 1 -8 -1 -109 -1 -225
-1 -115 0 -254 -1 -307 -1 -54 -1 -106 -1 -115 -1 -15 0 -160 0 -213 0 -33 0
-156 0 -165 0 -5 0 -62 0 -125 0 -63 0 -124 0 -135 0 -18 0 -180 0 -215 0 -33
0 -156 0 -165 0 -5 0 -62 0 -125 0 -63 0 -124 0 -135 0 -18 0 -180 0 -215 0
-33 0 -156 0 -165 0 -5 0 -62 0 -125 0 -63 0 -124 0 -135 0 -30 0 -198 0 -215
0 -60 0 -477 -1 -485 -1 -9 1 -223 1 -255 1 -88 -1 -242 0 -270 2 -19 0 -42 1
-50 1 -8 -1 -112 -1 -230 -1 -118 1 -221 1 -227 0 -26 -2 -41 -2 -187 -1 -81
1 -150 -1 -153 -4 -3 -2 -15 -2 -27 2 -11 4 -47 6 -79 4z"/>
<path d="M3877 15363 c-3 -5 -34 -8 -69 -7 l-63 1 -23 -61 c-13 -34 -24 -65
-26 -71 -5 -17 -18 -49 -32 -82 -8 -17 -14 -33 -14 -36 0 -2 -8 -22 -17 -43
-9 -22 -18 -45 -19 -52 -2 -13 -54 -150 -75 -197 -11 -27 -119 -307 -123 -320
-2 -5 -8 -23 -14 -38 -7 -16 -12 -34 -12 -41 0 -6 -4 -16 -8 -21 -5 -6 -17
-32 -27 -60 -10 -27 -32 -88 -50 -135 -18 -47 -62 -161 -98 -255 -35 -93 -68
-179 -72 -190 -4 -11 -9 -24 -11 -30 -2 -5 -22 -57 -44 -115 -23 -58 -50 -130
-61 -160 -10 -30 -23 -64 -29 -75 -13 -28 -68 -177 -72 -195 -2 -8 -6 -17 -9
-20 -4 -4 -63 -157 -64 -170 0 -3 -6 -14 -12 -25 -8 -16 -32 -82 -38 -105 -1
-3 -7 -18 -14 -35 -7 -16 -24 -59 -37 -95 -13 -36 -28 -74 -33 -85 -5 -11 -25
-63 -44 -115 -20 -52 -53 -138 -73 -190 -21 -52 -37 -101 -37 -107 0 -7 -4
-13 -9 -13 -4 0 -8 -8 -8 -17 0 -10 -7 -31 -15 -47 -8 -15 -15 -33 -15 -38 0
-6 -6 -24 -14 -41 -23 -53 -95 -241 -98 -257 -2 -8 -5 -17 -8 -20 -7 -7 -30
-68 -42 -112 -6 -21 -14 -38 -18 -38 -3 0 -7 -6 -7 -12 0 -7 -28 -85 -62 -173
-35 -88 -64 -164 -65 -170 -2 -5 -8 -23 -15 -40 -6 -16 -16 -43 -22 -60 -6
-16 -17 -43 -24 -60 -8 -16 -23 -55 -34 -85 -11 -30 -26 -68 -32 -85 -7 -16
-13 -34 -14 -40 -3 -10 -83 -220 -100 -260 -5 -11 -9 -22 -10 -25 -1 -3 -4
-12 -8 -20 -3 -8 -27 -71 -53 -140 -25 -69 -52 -138 -59 -155 -7 -16 -33 -86
-59 -155 -26 -69 -51 -134 -56 -145 -5 -11 -29 -76 -55 -145 -25 -69 -50 -134
-54 -145 -15 -35 -58 -147 -96 -250 -21 -55 -41 -109 -46 -120 -5 -11 -31 -81
-59 -155 -28 -74 -55 -144 -60 -155 -5 -11 -34 -87 -65 -170 -32 -82 -62 -161
-68 -175 -5 -14 -11 -30 -12 -36 -2 -6 -24 -64 -49 -128 -25 -64 -46 -121 -46
-127 0 -5 -7 -21 -16 -34 l-16 -25 48 0 c351 -3 949 1 955 7 4 5 31 73 59 153
53 149 106 296 122 340 5 14 10 27 10 30 1 5 33 94 135 380 24 69 46 130 47
135 2 6 7 21 13 35 5 14 23 61 38 105 15 44 57 161 92 260 36 99 69 196 75
215 6 19 14 40 18 45 4 6 11 25 15 42 3 18 12 36 18 40 7 4 716 8 1576 8 1219
0 1567 -3 1577 -12 6 -7 21 -41 32 -75 33 -102 109 -314 116 -327 4 -6 9 -19
11 -28 3 -16 82 -242 123 -353 9 -25 17 -48 17 -52 0 -3 3 -10 8 -14 4 -4 7
-14 7 -22 0 -8 6 -28 14 -45 12 -27 158 -436 213 -597 8 -25 18 -52 21 -60 3
-8 6 -17 6 -20 1 -3 4 -9 7 -15 4 -5 19 -47 33 -92 l28 -83 151 0 c178 -1 636
-1 754 0 l81 0 -55 143 c-30 78 -56 147 -57 152 -1 6 -4 15 -8 20 -3 6 -22 55
-43 110 -20 55 -40 109 -45 120 -16 36 -77 199 -96 255 -11 30 -22 57 -25 60
-3 3 -12 23 -18 45 -7 22 -21 59 -32 82 -10 24 -19 47 -19 53 0 6 -14 45 -31
88 -41 101 -42 104 -77 197 -76 199 -114 302 -125 330 -7 17 -12 32 -13 35 0
3 -6 19 -13 35 -7 17 -26 66 -42 110 -17 44 -38 98 -46 120 -9 22 -19 49 -24
60 -25 60 -59 153 -59 159 0 5 -7 22 -14 39 -8 18 -38 93 -66 167 -28 74 -53
142 -57 150 -3 8 -7 21 -9 29 -1 7 -7 18 -13 24 -6 6 -11 19 -11 29 0 10 -4
26 -10 36 -5 9 -28 67 -50 127 -22 61 -45 119 -49 130 -5 11 -26 65 -47 120
-20 55 -53 138 -71 185 -19 47 -36 92 -38 100 -2 8 -11 32 -19 53 -9 20 -13
37 -10 37 4 0 -1 9 -11 20 -10 11 -15 20 -11 20 4 0 1 10 -6 23 -6 12 -13 29
-14 37 -2 8 -7 23 -12 35 -6 11 -24 58 -42 105 -18 47 -36 94 -40 105 -11 27
-53 138 -75 200 -10 28 -22 55 -27 61 -4 6 -9 19 -11 30 -2 10 -9 33 -16 49
-6 17 -19 50 -28 75 -9 25 -20 49 -25 55 -4 5 -8 15 -8 21 0 7 -5 25 -12 41
-6 15 -12 30 -13 33 -1 3 -5 14 -10 25 -4 11 -25 67 -47 125 -22 58 -43 114
-48 125 -7 18 -20 52 -25 65 -2 5 -6 16 -21 55 -4 11 -8 22 -9 25 -1 3 -7 19
-14 35 -6 17 -23 62 -37 100 -26 70 -35 93 -59 150 -7 17 -27 71 -45 120 -18
50 -39 104 -45 120 -13 32 -47 119 -115 300 -22 61 -45 119 -50 130 -5 11 -23
58 -40 105 -17 47 -35 94 -40 105 -5 11 -23 58 -40 105 -17 47 -35 94 -40 105
-5 11 -24 63 -44 115 -19 52 -41 109 -47 125 -7 17 -13 35 -15 40 -7 23 -126
333 -139 362 -8 17 -15 34 -15 38 0 4 -11 34 -24 68 -13 34 -27 71 -31 82 -5
11 -9 26 -11 34 -5 25 -24 28 -175 27 -82 0 -149 2 -149 6 0 4 -12 3 -27 -1
-16 -5 -37 -5 -48 -1 -11 4 -29 4 -40 1 -27 -9 -488 -6 -502 2 -7 4 -14 4 -16
0z m424 -990 c7 -21 14 -40 14 -43 1 -3 5 -12 8 -20 4 -8 27 -71 52 -140 25
-69 52 -141 59 -160 8 -19 23 -60 34 -90 12 -30 44 -117 72 -192 28 -76 53
-143 54 -150 2 -7 8 -24 14 -38 14 -32 82 -216 82 -223 0 -3 5 -18 12 -34 6
-15 12 -30 13 -33 1 -3 5 -12 8 -20 8 -19 53 -142 73 -200 9 -25 20 -49 25
-55 5 -5 9 -19 9 -30 0 -12 3 -25 7 -29 6 -6 31 -68 36 -91 2 -5 5 -14 8 -20
4 -5 12 -31 20 -57 7 -27 18 -48 23 -48 5 0 7 -2 4 -6 -3 -3 9 -43 27 -90 19
-46 31 -84 28 -84 -3 0 -1 -6 4 -12 5 -7 17 -35 27 -63 10 -27 21 -59 26 -70
10 -25 33 -86 115 -310 68 -185 70 -193 75 -210 2 -5 16 -41 32 -79 15 -38 28
-74 28 -81 0 -6 7 -26 16 -44 9 -17 17 -37 18 -44 2 -7 7 -23 13 -37 17 -40
38 -96 88 -235 26 -71 50 -139 55 -150 5 -11 22 -58 39 -105 18 -47 36 -93 42
-104 8 -14 8 -21 -2 -26 -7 -5 -89 -7 -183 -6 -94 1 -179 -2 -188 -6 -10 -5
-18 -5 -18 -1 0 4 -488 8 -1085 7 -597 -1 -1085 1 -1085 3 0 3 22 64 49 136
27 73 52 143 56 156 4 13 14 40 23 60 9 20 17 41 18 46 4 16 64 178 74 200 8
18 23 62 25 75 0 3 6 14 12 25 6 11 11 22 11 25 0 3 5 18 11 33 6 16 11 34 11
41 0 7 3 16 7 20 6 5 27 59 37 91 3 11 11 31 29 80 7 17 11 33 9 38 -1 4 2 7
8 7 6 0 9 3 8 8 -3 9 22 84 32 97 5 6 9 15 9 20 2 15 22 75 39 115 9 19 17 44
19 54 2 11 7 24 11 30 5 6 15 31 22 56 7 25 17 50 22 56 4 6 9 19 11 30 2 10
11 36 20 58 9 21 17 42 17 45 0 4 15 47 34 94 19 48 32 87 29 87 -3 0 -1 6 4
13 5 6 17 35 27 62 10 28 21 59 26 70 26 66 40 103 46 125 3 14 12 39 19 55
17 37 94 249 97 267 2 7 6 15 9 18 3 3 16 37 28 75 13 39 28 79 34 90 6 11 12
29 14 39 2 11 10 33 18 49 8 17 15 34 15 39 0 8 33 97 60 163 4 11 15 40 24
65 8 25 21 59 27 75 7 17 13 35 15 40 6 23 39 110 44 115 3 3 6 12 8 20 8 38
107 300 113 300 4 0 13 -17 20 -37z"/>
</g>
</svg>
